<svg xmlns="http://www.w3.org/2000/svg" width="74.45" height="40">
  <path d="M58.6 9.21L57.6 3.87 44.98 7.8l.44 3.2 5.9-.8-.72 7.42.9.27 3.43-8.18zm4.77 3.84l-1.09 2.67-2.54-.63.84-2.42-3.18-.16-.22 1.93-2.38-.6-.98 4.98 2.82.27-.34 2.97.96.16 1.03-2.98 2.47.24-2.97 7.32.95.23 4.77-7.3 3.01.29.61-3.09-1.53-.38 1.91-2.93zm7.28.23l-2.6 3.4.57.47 4.73-2.3zm2.34 3.26l-4.37 1.49.25.73 5.58.58z" fill="#fa0032"/>
  <path d="M35.79 33.1l-8.6 2.17L37.43 11.9H18.77l-.6 6.63 13.03-2.05-14.02 22.7h21.99l-3.38-6.08z" fill="#2355aa"/>
  <path d="M6.64 17.55l3.27 21.67h4.02l1.6-21.67z" fill="#149137"/>
  <path d="M56 34.68a4.77 4.77 0 01-1.18.4v-6.9a19.65 19.65 0 00-.16-3.07 4.85 4.85 0 00-.8-1.84 5.7 5.7 0 00-1.37-1.44A9.58 9.58 0 0046.77 20c-3.12 0-5.56.85-7.26 2.54l-.2.2-.02.3v5.65l1.26-1.14a8.83 8.83 0 015.9-2.63c2.56 0 2.9 1.19 2.9 2.36v.34l-4.6 1.34a10.53 10.53 0 00-4.22 2.2 4.62 4.62 0 00-1.62 3.46 4.47 4.47 0 001.69 3.56 6.09 6.09 0 004.03 1.36 10.4 10.4 0 005.12-1.4A3.93 3.93 0 0053.11 40h.08l.08-.01a23.95 23.95 0 003.28-.96l.43-.17V34.2zm-6.65-3.6v3.63a4.73 4.73 0 01-2.8.98 2.36 2.36 0 01-1.6-.5 1.42 1.42 0 01-.53-1.15 1.43 1.43 0 01.57-1.16 8.65 8.65 0 012.66-1.26z" fill="#ffb400"/>
  <path d="M3.01 17.89l2-2.12-1.2-1.57-2.53 1.36a10.58 10.58 0 001.73 2.33z" fill="#f75510"/>
  <path fill="#ffb400" d="M15.12 11.33a4.67 4.67 0 01-5.4 3.79 4.67 4.67 0 01-3.8-5.41 4.67 4.67 0 015.41-3.8 4.67 4.67 0 013.8 5.42zM8.6 2.99l1.96-.26.08-2.73A10.44 10.44 0 007.8.35zM17.33 2.5A10.45 10.45 0 0014.9.96l-1.1 2.54 1.68 1.07zM20.01 5.98l-2.53 1.27.59 1.9 2.82-.42A10.52 10.52 0 0020 5.98zM1.95 4.42l2.31 1.53 1.35-1.46-1.7-2.15a10.54 10.54 0 00-1.96 2.08zM2.94 9.02L.2 8.45l-.06.24a10.56 10.56 0 00-.12 2.63l2.82-.33z"/>
  <path fill="#ffb400" d="M15.12 11.33a4.67 4.67 0 01-5.4 3.79 4.67 4.67 0 01-3.8-5.41 4.67 4.67 0 015.41-3.8 4.67 4.67 0 013.8 5.42zM8.6 2.99l1.96-.26.08-2.73A10.44 10.44 0 007.8.35zM17.33 2.5A10.45 10.45 0 0014.9.96l-1.1 2.54 1.68 1.07zM20.01 5.98l-2.53 1.27.59 1.9 2.82-.42A10.52 10.52 0 0020 5.98zM1.95 4.42l2.31 1.53 1.35-1.46-1.7-2.15a10.54 10.54 0 00-1.96 2.08zM2.94 9.02L.2 8.45l-.06.24a10.56 10.56 0 00-.12 2.63l2.82-.33zM3.01 17.89l2-2.12-1.2-1.57-2.53 1.36a10.58 10.58 0 001.73 2.33z"/>
</svg>
